<svg xmlns="http://www.w3.org/2000/svg" width="1080" height="757" viewBox="0 0 1080 757"><rect width="100%" height="100%" fill="#0c0c0c"/><g font-family="JetBrains Mono, Menlo, monospace" font-size="14" fill="#e0e0e0"><text x="30" y="42" font-size="22" text-anchor="start" font-weight="700">E8 prompt complexity by model</text><text x="30" y="70" font-size="13" text-anchor="start" fill="#9a9a9a">Average pass rate by prompt-detail level; higher means more generated code passed tests.</text><line x1="280" y1="100" x2="280" y2="662" stroke="#2a2a2a" stroke-dasharray="4 6"/><text x="280" y="709" font-size="12" text-anchor="middle">0.0</text><line x1="404" y1="100" x2="404" y2="662" stroke="#2a2a2a" stroke-dasharray="4 6"/><text x="404" y="709" font-size="12" text-anchor="middle">0.2</text><line x1="528" y1="100" x2="528" y2="662" stroke="#2a2a2a" stroke-dasharray="4 6"/><text x="528" y="709" font-size="12" text-anchor="middle">0.4</text><line x1="652" y1="100" x2="652" y2="662" stroke="#2a2a2a" stroke-dasharray="4 6"/><text x="652" y="709" font-size="12" text-anchor="middle">0.6</text><line x1="776" y1="100" x2="776" y2="662" stroke="#2a2a2a" stroke-dasharray="4 6"/><text x="776" y="709" font-size="12" text-anchor="middle">0.8</text><line x1="900" y1="100" x2="900" y2="662" stroke="#2a2a2a" stroke-dasharray="4 6"/><text x="900" y="709" font-size="12" text-anchor="middle">1.0</text><text x="30" y="134" font-size="12" text-anchor="start">qwen2.5-coder:1.5b</text><rect x="280" y="146" width="483" height="18" rx="2" fill="#ffcc66"/><text x="771" y="160" font-size="11" text-anchor="start">0.78</text><rect x="280" y="169" width="582" height="18" rx="2" fill="#66ccff"/><text x="870" y="183" font-size="11" text-anchor="start">0.94</text><rect x="280" y="192" width="514" height="18" rx="2" fill="#b6e880"/><text x="802" y="206" font-size="11" text-anchor="start">0.83</text><rect x="280" y="215" width="173" height="18" rx="2" fill="#ff6666"/><text x="461" y="229" font-size="11" text-anchor="start">0.28</text><text x="30" y="277" font-size="12" text-anchor="start">gemma3:1b</text><rect x="280" y="289" width="582" height="18" rx="2" fill="#ffcc66"/><text x="870" y="303" font-size="11" text-anchor="start">0.94</text><rect x="280" y="312" width="582" height="18" rx="2" fill="#66ccff"/><text x="870" y="326" font-size="11" text-anchor="start">0.94</text><rect x="280" y="335" width="514" height="18" rx="2" fill="#b6e880"/><text x="802" y="349" font-size="11" text-anchor="start">0.83</text><rect x="280" y="358" width="514" height="18" rx="2" fill="#ff6666"/><text x="802" y="372" font-size="11" text-anchor="start">0.83</text><text x="30" y="420" font-size="12" text-anchor="start">phi4-mini:latest</text><rect x="280" y="432" width="551" height="18" rx="2" fill="#ffcc66"/><text x="839" y="446" font-size="11" text-anchor="start">0.89</text><rect x="280" y="455" width="582" height="18" rx="2" fill="#66ccff"/><text x="870" y="469" font-size="11" text-anchor="start">0.94</text><rect x="280" y="478" width="446" height="18" rx="2" fill="#b6e880"/><text x="734" y="492" font-size="11" text-anchor="start">0.72</text><rect x="280" y="501" width="582" height="18" rx="2" fill="#ff6666"/><text x="870" y="515" font-size="11" text-anchor="start">0.94</text><text x="30" y="563" font-size="12" text-anchor="start">gemma3:4b</text><rect x="280" y="575" width="582" height="18" rx="2" fill="#ffcc66"/><text x="870" y="589" font-size="11" text-anchor="start">0.94</text><rect x="280" y="598" width="582" height="18" rx="2" fill="#66ccff"/><text x="870" y="612" font-size="11" text-anchor="start">0.94</text><rect x="280" y="621" width="582" height="18" rx="2" fill="#b6e880"/><text x="870" y="635" font-size="11" text-anchor="start">0.94</text><rect x="280" y="644" width="582" height="18" rx="2" fill="#ff6666"/><text x="870" y="658" font-size="11" text-anchor="start">0.94</text><rect x="945" y="106" width="14" height="14" fill="#ffcc66"/><text x="967" y="120" font-size="12" text-anchor="start">minimal</text><rect x="945" y="130" width="14" height="14" fill="#66ccff"/><text x="967" y="144" font-size="12" text-anchor="start">role+constr</text><rect x="945" y="154" width="14" height="14" fill="#b6e880"/><text x="967" y="168" font-size="12" text-anchor="start">examples</text><rect x="945" y="178" width="14" height="14" fill="#ff6666"/><text x="967" y="192" font-size="12" text-anchor="start">maximal</text><text x="590" y="737" font-size="12" text-anchor="middle" fill="#9a9a9a">Average pass rate (0 = no graded calls passed, 1 = all graded calls passed)</text><text x="882" y="644" font-size="24" text-anchor="end" fill="#e0e0e0" opacity="0.18" font-weight="700">Signal Depth</text></g></svg>
