<svg xmlns="http://www.w3.org/2000/svg" width="980" height="560" viewBox="0 0 980 560"><rect width="100%" height="100%" fill="#0c0c0c"/><g font-family="JetBrains Mono, Menlo, monospace" font-size="14" fill="#e0e0e0"><text x="30" y="42" font-size="22" text-anchor="start">Complexity by model</text><line x1="150" y1="70" x2="150" y2="495" stroke="#2a2a2a" stroke-dasharray="4 6"/><text x="150" y="530" font-size="12" text-anchor="middle">0.0</text><line x1="254" y1="70" x2="254" y2="495" stroke="#2a2a2a" stroke-dasharray="4 6"/><text x="254" y="530" font-size="12" text-anchor="middle">0.2</text><line x1="358" y1="70" x2="358" y2="495" stroke="#2a2a2a" stroke-dasharray="4 6"/><text x="358" y="530" font-size="12" text-anchor="middle">0.4</text><line x1="462" y1="70" x2="462" y2="495" stroke="#2a2a2a" stroke-dasharray="4 6"/><text x="462" y="530" font-size="12" text-anchor="middle">0.6</text><line x1="566" y1="70" x2="566" y2="495" stroke="#2a2a2a" stroke-dasharray="4 6"/><text x="566" y="530" font-size="12" text-anchor="middle">0.8</text><line x1="670" y1="70" x2="670" y2="495" stroke="#2a2a2a" stroke-dasharray="4 6"/><text x="670" y="530" font-size="12" text-anchor="middle">1.0</text><text x="30" y="125" font-size="12" text-anchor="start">qwen2.5-coder:1.5b</text><rect x="150" y="90" width="405" height="18" rx="2" fill="#ffcc66"/><text x="563" y="104" font-size="11" text-anchor="start">0.78</text><rect x="150" y="111" width="488" height="18" rx="2" fill="#66ccff"/><text x="646" y="125" font-size="11" text-anchor="start">0.94</text><rect x="150" y="132" width="431" height="18" rx="2" fill="#b6e880"/><text x="589" y="146" font-size="11" text-anchor="start">0.83</text><rect x="150" y="153" width="145" height="18" rx="2" fill="#ff6666"/><text x="303" y="167" font-size="11" text-anchor="start">0.28</text><text x="30" y="215" font-size="12" text-anchor="start">gemma3:1b</text><rect x="150" y="180" width="488" height="18" rx="2" fill="#ffcc66"/><text x="646" y="194" font-size="11" text-anchor="start">0.94</text><rect x="150" y="201" width="488" height="18" rx="2" fill="#66ccff"/><text x="646" y="215" font-size="11" text-anchor="start">0.94</text><rect x="150" y="222" width="431" height="18" rx="2" fill="#b6e880"/><text x="589" y="236" font-size="11" text-anchor="start">0.83</text><rect x="150" y="243" width="431" height="18" rx="2" fill="#ff6666"/><text x="589" y="257" font-size="11" text-anchor="start">0.83</text><text x="30" y="305" font-size="12" text-anchor="start">phi4-mini:latest</text><rect x="150" y="270" width="462" height="18" rx="2" fill="#ffcc66"/><text x="620" y="284" font-size="11" text-anchor="start">0.89</text><rect x="150" y="291" width="488" height="18" rx="2" fill="#66ccff"/><text x="646" y="305" font-size="11" text-anchor="start">0.94</text><rect x="150" y="312" width="374" height="18" rx="2" fill="#b6e880"/><text x="532" y="326" font-size="11" text-anchor="start">0.72</text><rect x="150" y="333" width="488" height="18" rx="2" fill="#ff6666"/><text x="646" y="347" font-size="11" text-anchor="start">0.94</text><text x="30" y="395" font-size="12" text-anchor="start">gemma3:4b</text><rect x="150" y="360" width="488" height="18" rx="2" fill="#ffcc66"/><text x="646" y="374" font-size="11" text-anchor="start">0.94</text><rect x="150" y="381" width="488" height="18" rx="2" fill="#66ccff"/><text x="646" y="395" font-size="11" text-anchor="start">0.94</text><rect x="150" y="402" width="488" height="18" rx="2" fill="#b6e880"/><text x="646" y="416" font-size="11" text-anchor="start">0.94</text><rect x="150" y="423" width="488" height="18" rx="2" fill="#ff6666"/><text x="646" y="437" font-size="11" text-anchor="start">0.94</text><rect x="710" y="76" width="14" height="14" fill="#ffcc66"/><text x="732" y="90" font-size="12" text-anchor="start">minimal</text><rect x="710" y="100" width="14" height="14" fill="#66ccff"/><text x="732" y="114" font-size="12" text-anchor="start">role+constr</text><rect x="710" y="124" width="14" height="14" fill="#b6e880"/><text x="732" y="138" font-size="12" text-anchor="start">examples</text><rect x="710" y="148" width="14" height="14" fill="#ff6666"/><text x="732" y="162" font-size="12" text-anchor="start">maximal</text></g></svg>
