<svg xmlns="http://www.w3.org/2000/svg" width="1080" height="379" viewBox="0 0 1080 379"><rect width="100%" height="100%" fill="#0c0c0c"/><g font-family="JetBrains Mono, Menlo, monospace" font-size="14" fill="#e0e0e0"><text x="30" y="42" font-size="22" text-anchor="start" font-weight="700">E4 compression sensitivity</text><text x="30" y="70" font-size="13" text-anchor="start" fill="#9a9a9a">Average pass rate before and after prompt compression; only archived models shown.</text><line x1="280" y1="100" x2="280" y2="284" stroke="#2a2a2a" stroke-dasharray="4 6"/><text x="280" y="331" font-size="12" text-anchor="middle">0.0</text><line x1="404" y1="100" x2="404" y2="284" stroke="#2a2a2a" stroke-dasharray="4 6"/><text x="404" y="331" font-size="12" text-anchor="middle">0.2</text><line x1="528" y1="100" x2="528" y2="284" stroke="#2a2a2a" stroke-dasharray="4 6"/><text x="528" y="331" font-size="12" text-anchor="middle">0.4</text><line x1="652" y1="100" x2="652" y2="284" stroke="#2a2a2a" stroke-dasharray="4 6"/><text x="652" y="331" font-size="12" text-anchor="middle">0.6</text><line x1="776" y1="100" x2="776" y2="284" stroke="#2a2a2a" stroke-dasharray="4 6"/><text x="776" y="331" font-size="12" text-anchor="middle">0.8</text><line x1="900" y1="100" x2="900" y2="284" stroke="#2a2a2a" stroke-dasharray="4 6"/><text x="900" y="331" font-size="12" text-anchor="middle">1.0</text><text x="30" y="134" font-size="12" text-anchor="start">gemma3:1b</text><rect x="280" y="146" width="585" height="18" rx="2" fill="#ffcc66"/><text x="873" y="160" font-size="11" text-anchor="start">0.94</text><rect x="280" y="169" width="585" height="18" rx="2" fill="#66ccff"/><text x="873" y="183" font-size="11" text-anchor="start">0.94</text><text x="30" y="231" font-size="12" text-anchor="start">qwen2.5-coder:1.5b</text><rect x="280" y="243" width="551" height="18" rx="2" fill="#ffcc66"/><text x="839" y="257" font-size="11" text-anchor="start">0.89</text><rect x="280" y="266" width="172" height="18" rx="2" fill="#66ccff"/><text x="460" y="280" font-size="11" text-anchor="start">0.28</text><rect x="945" y="106" width="14" height="14" fill="#ffcc66"/><text x="967" y="120" font-size="12" text-anchor="start">original</text><rect x="945" y="130" width="14" height="14" fill="#66ccff"/><text x="967" y="144" font-size="12" text-anchor="start">compressed</text><text x="590" y="359" font-size="12" text-anchor="middle" fill="#9a9a9a">Average pass rate (0 = no graded calls passed, 1 = all graded calls passed)</text><text x="882" y="266" font-size="24" text-anchor="end" fill="#e0e0e0" opacity="0.18" font-weight="700">Signal Depth</text></g></svg>
