<svg xmlns="http://www.w3.org/2000/svg" width="900" height="520" viewBox="0 0 900 520"><rect width="100%" height="100%" fill="#0c0c0c"/><g font-family="JetBrains Mono, Menlo, monospace" font-size="14" fill="#e0e0e0"><text x="30" y="42" font-size="22" text-anchor="start">Specificity gradient: average pass rate</text><line x1="230" y1="70" x2="230" y2="460" stroke="#2a2a2a" stroke-dasharray="4 6"/><text x="230" y="492" font-size="12" text-anchor="middle">0.0</text><line x1="342" y1="70" x2="342" y2="460" stroke="#2a2a2a" stroke-dasharray="4 6"/><text x="342" y="492" font-size="12" text-anchor="middle">0.2</text><line x1="454" y1="70" x2="454" y2="460" stroke="#2a2a2a" stroke-dasharray="4 6"/><text x="454" y="492" font-size="12" text-anchor="middle">0.4</text><line x1="566" y1="70" x2="566" y2="460" stroke="#2a2a2a" stroke-dasharray="4 6"/><text x="566" y="492" font-size="12" text-anchor="middle">0.6</text><line x1="678" y1="70" x2="678" y2="460" stroke="#2a2a2a" stroke-dasharray="4 6"/><text x="678" y="492" font-size="12" text-anchor="middle">0.8</text><line x1="790" y1="70" x2="790" y2="460" stroke="#2a2a2a" stroke-dasharray="4 6"/><text x="790" y="492" font-size="12" text-anchor="middle">1.0</text><text x="30" y="114" font-size="14" text-anchor="start">vague</text><rect x="230" y="85" width="50" height="44" rx="3" fill="#ffcc66"/><text x="292" y="114" font-size="13" text-anchor="start">0.09</text><text x="30" y="180" font-size="14" text-anchor="start">task_only</text><rect x="230" y="151" width="256" height="44" rx="3" fill="#66ccff"/><text x="498" y="180" font-size="13" text-anchor="start">0.46</text><text x="30" y="246" font-size="14" text-anchor="start">task_io</text><rect x="230" y="217" width="532" height="44" rx="3" fill="#ffcc66"/><text x="774" y="246" font-size="13" text-anchor="start">0.95</text><text x="30" y="312" font-size="14" text-anchor="start">full_spec</text><rect x="230" y="283" width="544" height="44" rx="3" fill="#ffcc66"/><text x="786" y="312" font-size="13" text-anchor="start">0.97</text></g></svg>
