<svg xmlns="http://www.w3.org/2000/svg" width="980" height="447" viewBox="0 0 980 447"><rect width="100%" height="100%" fill="#0c0c0c"/><g font-family="JetBrains Mono, Menlo, monospace" font-size="14" fill="#e0e0e0"><text x="30" y="42" font-size="22" text-anchor="start" font-weight="700">E9 specificity gradient</text><text x="30" y="70" font-size="13" text-anchor="start" fill="#9a9a9a">Prompt levels on deterministic Python code tasks; higher means more graded calls passed.</text><line x1="260" y1="100" x2="260" y2="352" stroke="#2a2a2a" stroke-dasharray="4 6"/><text x="260" y="399" font-size="12" text-anchor="middle">0.0</text><line x1="384" y1="100" x2="384" y2="352" stroke="#2a2a2a" stroke-dasharray="4 6"/><text x="384" y="399" font-size="12" text-anchor="middle">0.2</text><line x1="508" y1="100" x2="508" y2="352" stroke="#2a2a2a" stroke-dasharray="4 6"/><text x="508" y="399" font-size="12" text-anchor="middle">0.4</text><line x1="632" y1="100" x2="632" y2="352" stroke="#2a2a2a" stroke-dasharray="4 6"/><text x="632" y="399" font-size="12" text-anchor="middle">0.6</text><line x1="756" y1="100" x2="756" y2="352" stroke="#2a2a2a" stroke-dasharray="4 6"/><text x="756" y="399" font-size="12" text-anchor="middle">0.8</text><line x1="880" y1="100" x2="880" y2="352" stroke="#2a2a2a" stroke-dasharray="4 6"/><text x="880" y="399" font-size="12" text-anchor="middle">1.0</text><text x="30" y="149" font-size="14" text-anchor="start">vague</text><rect x="260" y="120" width="55" height="38" rx="3" fill="#ffcc66"/><text x="327" y="149" font-size="13" text-anchor="start">0.09</text><text x="30" y="207" font-size="14" text-anchor="start">task_only</text><rect x="260" y="178" width="284" height="38" rx="3" fill="#66ccff"/><text x="556" y="207" font-size="13" text-anchor="start">0.46</text><text x="30" y="265" font-size="14" text-anchor="start">task_io</text><rect x="260" y="236" width="589" height="38" rx="3" fill="#b6e880"/><text x="861" y="265" font-size="13" text-anchor="start">0.95</text><text x="30" y="323" font-size="14" text-anchor="start">full_spec</text><rect x="260" y="294" width="602" height="38" rx="3" fill="#ff6666"/><text x="874" y="323" font-size="13" text-anchor="start">0.97</text><text x="570" y="427" font-size="12" text-anchor="middle" fill="#9a9a9a">Average pass rate (0 = no graded calls passed, 1 = all graded calls passed)</text><text x="862" y="334" font-size="24" text-anchor="end" fill="#e0e0e0" opacity="0.18" font-weight="700">Signal Depth</text></g></svg>
